#!OML:ASF H:\Punching\Project 1\Capture day 1\Session 1\female.ASF
:FULLY-SPECIFIED
:DEGREES
1481
root 1.81037 15.2253 1.92977 2.49503 4.18242 -2.81537
lowerback 0.900349 0.597986 2.94974
upperback -3.80778 1.09312 4.91225
thorax -4.48996 0.541682 3.38775
lowerneck -9.80019 1.92005 9.64392
upperneck 41.927 3.22346 -6.82761
head 17.2861 2.07424 -4.32341
rclavicle 8.15017e-015 6.36111e-015
rhumerus -11.9977 12.6773 -65.9404
rradius 129.929
rwrist -13.4022
rhand -35.7734 14.9438
rfingers 7.12502
rthumb -8.89115 -14.8489
lclavicle 8.15017e-015 6.36111e-015
lhumerus -3.74039 -29.8552 72.4816
lradius 137.598
lwrist 0.936743
lhand -25.8294 2.74559
lfingers 7.12502
lthumb 0.710473 32.7242
rfemur -64.347 -4.12129 22.4382
rtibia 127.714
rfoot -0.338673 4.09268
rtoes -21.5989
lfemur -27.2501 -8.59648 -25.2707
ltibia 36.3765
lfoot -10.2158 14.5614
ltoes 19.2094
1482
root 1.82324 15.2306 1.87848 3.23192 2.87041 -2.67337
lowerback 0.641361 0.669628 2.92741
upperback -3.9771 1.17392 4.75079
thorax -4.51878 0.578597 3.23055
lowerneck -9.83499 2.20035 9.91137
upperneck 41.7004 3.61328 -6.97406
head 17.2327 2.24322 -4.36715
rclavicle -6.4605e-015 -3.81667e-014
rhumerus -11.8105 13.034 -66.207
rradius 129.908
rwrist -13.2857
rhand -35.8857 15.0976
rfingers 7.12502
rthumb -8.99947 -14.6904
lclavicle -6.4605e-015 -3.81667e-014
lhumerus -3.67868 -29.5337 71.9778
lradius 137.735
lwrist 0.907937
lhand -25.9455 3.26812
lfingers 7.12502
lthumb 0.598356 33.247
rfemur -62.2419 -4.21414 21.9746
rtibia 127.064
rfoot 0.108868 3.99092
rtoes -20.1713
lfemur -28.1868 -8.04708 -25.2045
ltibia 36.3516
lfoot -10.1782 15.1319
ltoes 19.449
1483
root 1.83548 15.2336 1.82713 3.95228 1.57383 -2.53682
lowerback 0.351071 0.739196 2.9092
upperback -4.12797 1.2488 4.57962
thorax -4.50953 0.612229 3.06187
lowerneck -9.85134 2.47871 10.1931
upperneck 41.4518 4.00371 -7.13687
head 17.166 2.41254 -4.41916
rclavicle -4.67144e-015 -3.97569e-014
rhumerus -11.5911 13.3321 -66.4804
rradius 130.032
rwrist -13.5065
rhand -35.709 14.7293
rfingers 7.12502
rthumb -8.82897 -15.066
lclavicle -4.67144e-015 -3.97569e-014
lhumerus -3.57861 -29.1763 71.4436
lradius 137.834
lwrist 0.880373
lhand -26.0757 3.67858
lfingers 7.12502
lthumb 0.472654 33.6578
rfemur -60.0976 -4.29215 21.4789
rtibia 126.212
rfoot 0.470798 3.76966
rtoes -18.7903
lfemur -29.1326 -7.51182 -25.1405
ltibia 36.3704
lfoot -10.1682 15.6818
ltoes 19.7149
1484
root 1.84744 15.2346 1.77727 4.6367 0.274908 -2.41246
lowerback 0.0728072 0.810671 2.89778
upperback -4.27357 1.32681 4.40222
thorax -4.50106 0.646947 2.88334
lowerneck -9.85766 2.75574 10.4894
upperneck 41.2019 4.39483 -7.31415
head 17.1006 2.58318 -4.47986
rclavicle 9.74045e-015 -7.79236e-014
rhumerus -11.3729 13.5819 -66.761
rradius 130.309
rwrist -14.0518
rhand -35.1809 13.7505
rfingers 7.12502
rthumb -8.31937 -16.0657
lclavicle 9.74045e-015 -7.79236e-014
lhumerus -3.47115 -28.7823 70.895
lradius 137.904
lwrist 0.876202
lhand -26.1961 3.9172
lfingers 7.12502
lthumb 0.356385 33.8966
rfemur -57.8827 -4.33391 20.9634
rtibia 125.149
rfoot 0.720563 3.44368
rtoes -17.4858
lfemur -30.0551 -6.98441 -25.0732
ltibia 36.429
lfoot -10.1995 16.226
ltoes 20.012
1485
root 1.85936 15.2346 1.72851 5.28302 -1.02034 -2.30292
lowerback -0.191655 0.883677 2.90076
upperback -4.4085 1.4074 4.21966
thorax -4.48851 0.68222 2.69179
lowerneck -9.87112 3.03072 10.787
upperneck 40.9485 4.78228 -7.49411
head 17.0383 2.75233 -4.54186
rclavicle 5.76476e-015 -7.95139e-015
rhumerus -11.147 13.8083 -67.0458
rradius 130.611
rwrist -14.6592
rhand -34.5579 12.6568
rfingers 7.12502
rthumb -7.71812 -17.1823
lclavicle 5.76476e-015 -7.95139e-015
lhumerus -3.34716 -28.3309 70.3347
lradius 137.94
lwrist 0.930307
lhand -26.2767 3.91071
lfingers 7.12502
lthumb 0.278461 33.8903
rfemur -55.5956 -4.34413 20.4333
rtibia 123.868
rfoot 0.858752 3.03008
rtoes -16.3009
lfemur -30.95 -6.46733 -24.9995
ltibia 36.523
lfoot -10.2721 16.7631
ltoes 20.3463
1486
root 1.87125 15.2338 1.68122 5.88607 -2.31847 -2.21246
lowerback -0.428813 0.961668 2.91994
upperback -4.5376 1.49634 4.03605
thorax -4.48479 0.720867 2.49012
lowerneck -9.89199 3.3002 11.0785
upperneck 40.6999 5.16187 -7.67368
head 16.9826 2.91775 -4.60353
rclavicle 5.96354e-015 1.27222e-014
rhumerus -10.9316 14.0344 -67.3288
rradius 130.885
rwrist -15.1793
rhand -33.9777 11.6594
rfingers 7.12502
rthumb -7.15807 -18.1996
lclavicle 5.96354e-015 1.27222e-014
lhumerus -3.23478 -27.8441 69.7823
lradius 137.971
lwrist 1.02105
lhand -26.3089 3.74025
lfingers 7.12502
lthumb 0.247363 33.7198
rfemur -53.2429 -4.32218 19.9001
rtibia 122.374
rfoot 0.89312 2.52057
rtoes -15.1982
lfemur -31.8064 -5.94425 -24.9178
ltibia 36.6467
lfoot -10.3824 17.2902
ltoes 20.7055
1487
root 1.88298 15.2323 1.63511 6.45117 -3.61291 -2.14766
lowerback -0.63492 1.04344 2.95745
upperback -4.6632 1.59241 3.8558
thorax -4.49436 0.76224 2.28167
lowerneck -9.9278 3.56328 11.3578
upperneck 40.4531 5.53067 -7.84744
head 16.9326 3.07764 -4.66143
rclavicle 1.68967e-015 2.8625e-014
rhumerus -10.7243 14.2757 -67.6075
rradius 131.081
rwrist -15.503
rhand -33.5609 10.96
rfingers 7.12502
rthumb -6.75566 -18.9122
lclavicle 1.68967e-015 2.8625e-014
lhumerus -3.14033 -27.3508 69.2451
lradius 138.013
lwrist 1.11979
lhand -26.2944 3.52128
lfingers 7.12502
lthumb 0.26142 33.5009
rfemur -50.8445 -4.28225 19.3806
rtibia 120.673
rfoot 0.857026 1.89991
rtoes -14.2044
lfemur -32.6298 -5.4106 -24.8216
ltibia 36.7966
lfoot -10.5169 17.8039
ltoes 21.0653
1488
root 1.89435 15.2301 1.58975 6.9812 -4.89719 -2.10482
lowerback -0.813263 1.1288 3.0095
upperback -4.78547 1.69504 3.67993
thorax -4.51552 0.806182 2.06958
lowerneck -9.97213 3.81738 11.6176
upperneck 40.2074 5.88669 -8.01367
head 16.885 3.23038 -4.71372
rclavicle -1.55052e-014 1.90833e-014
rhumerus -10.5291 14.5291 -67.8735
rradius 131.199
rwrist -15.6129
rhand -33.3189 10.5449
rfingers 7.12502
rthumb -6.52204 -19.3346
lclavicle -1.55052e-014 1.90833e-014
lhumerus -3.07145 -26.8714 68.7386
lradius 138.065
lwrist 1.20316
lhand -26.2598 3.30818
lfingers 7.12502
lthumb 0.294812 33.2877
rfemur -48.4184 -4.23966 18.8743
rtibia 118.776
rfoot 0.777549 1.15728
rtoes -13.3256
lfemur -33.4259 -4.86868 -24.7145
ltibia 36.9752
lfoot -10.6661 18.3027
ltoes 21.4057
